<svg width="115" height="48" viewBox="0 0 115 48" fill="none" xmlns="http://www.w3.org/2000/svg">
<path d="M17.888 40C16.928 40 15.9787 39.7227 15.04 39.168C14.1227 38.6347 12.9493 37.8027 11.52 36.672C10.4533 35.8187 9.536 35.1253 8.768 34.592C8.02133 34.08 7.2 33.6427 6.304 33.28C5.42933 32.9173 4.53333 32.736 3.616 32.736C3.296 32.736 3.05067 32.7467 2.88 32.768L7.648 10.592C6.21867 11.168 5.10933 12.0533 4.32 13.248C3.552 14.4213 3.168 15.8613 3.168 17.568C3.168 18.3573 3.24267 18.912 3.392 19.232C3.54133 19.5307 3.616 19.7013 3.616 19.744C2.464 19.744 1.6 19.5093 1.024 19.04C0.469333 18.5493 0.192 17.7493 0.192 16.64C0.192 15.2747 0.746667 13.952 1.856 12.672C2.98667 11.3707 4.42667 10.3253 6.176 9.536C7.92533 8.72533 9.67467 8.32 11.424 8.32C11.7227 8.32 12.1493 8.34133 12.704 8.384L7.776 31.36C8.37333 31.5093 8.98133 31.7227 9.6 32C10.24 32.2987 11.008 32.6933 11.904 33.184C13.2907 33.9307 14.4747 34.496 15.456 34.88C16.4373 35.2853 17.4613 35.488 18.528 35.488C19.488 35.488 20.384 35.3173 21.216 34.976C21.0453 36.5333 20.6613 37.76 20.064 38.656C19.488 39.552 18.7627 40 17.888 40ZM15.965 32.192C14.749 32.192 13.7357 31.776 12.925 30.944C12.1143 30.112 11.709 28.8107 11.709 27.04C11.709 25.4613 12.0183 23.808 12.637 22.08C13.277 20.3307 14.2157 18.8587 15.453 17.664C16.7117 16.448 18.205 15.84 19.933 15.84C20.8077 15.84 21.4583 15.9893 21.885 16.288C22.3117 16.5867 22.525 16.9813 22.525 17.472V17.696L22.877 16H27.485L25.181 26.88C25.0957 27.2 25.053 27.5413 25.053 27.904C25.053 28.8213 25.4903 29.28 26.365 29.28C26.9623 29.28 27.4743 29.0027 27.901 28.448C28.349 27.8933 28.701 27.168 28.957 26.272H30.301C29.5117 28.576 28.5303 30.144 27.357 30.976C26.205 31.7867 25.0423 32.192 23.869 32.192C22.973 32.192 22.2477 31.9467 21.693 31.456C21.1597 30.944 20.8397 30.208 20.733 29.248C20.1143 30.1227 19.421 30.8373 18.653 31.392C17.9063 31.9253 17.0103 32.192 15.965 32.192ZM18.045 29.088C18.5783 29.088 19.101 28.8427 19.613 28.352C20.1463 27.84 20.509 27.1467 20.701 26.272L22.237 19.04C22.237 18.7627 22.1303 18.496 21.917 18.24C21.7037 17.9627 21.373 17.824 20.925 17.824C20.0717 17.824 19.3037 18.3253 18.621 19.328C17.9383 20.3093 17.405 21.504 17.021 22.912C16.637 24.2987 16.445 25.5253 16.445 26.592C16.445 27.6587 16.5943 28.3413 16.893 28.64C17.213 28.9387 17.597 29.088 18.045 29.088ZM31.1448 16H35.7528L35.3368 17.984C36.0621 17.344 36.7128 16.8533 37.2888 16.512C37.8861 16.1707 38.5261 16 39.2088 16C39.8914 16 40.4248 16.2347 40.8088 16.704C41.2141 17.1733 41.4168 17.7387 41.4168 18.4C41.4168 19.0187 41.2141 19.5627 40.8088 20.032C40.4034 20.5013 39.8381 20.736 39.1128 20.736C38.6434 20.736 38.3234 20.6293 38.1528 20.416C38.0034 20.1813 37.8861 19.8507 37.8008 19.424C37.7368 19.1467 37.6728 18.944 37.6088 18.816C37.5448 18.688 37.4274 18.624 37.2568 18.624C36.8088 18.624 36.4248 18.72 36.1048 18.912C35.8061 19.0827 35.4114 19.392 34.9208 19.84L32.3608 32H27.7527L31.1448 16ZM44.84 32.192C43.624 32.192 42.6107 31.776 41.8 30.944C40.9893 30.112 40.584 28.8107 40.584 27.04C40.584 25.4613 40.8933 23.808 41.512 22.08C42.152 20.3307 43.0907 18.8587 44.328 17.664C45.5867 16.448 47.08 15.84 48.808 15.84C49.6827 15.84 50.3333 15.9893 50.76 16.288C51.1867 16.5867 51.4 16.9813 51.4 17.472V17.696L51.752 16H56.36L54.056 26.88C53.9707 27.2 53.928 27.5413 53.928 27.904C53.928 28.8213 54.3653 29.28 55.24 29.28C55.8373 29.28 56.3493 29.0027 56.776 28.448C57.224 27.8933 57.576 27.168 57.832 26.272H59.176C58.3867 28.576 57.4053 30.144 56.232 30.976C55.08 31.7867 53.9173 32.192 52.744 32.192C51.848 32.192 51.1227 31.9467 50.568 31.456C50.0347 30.944 49.7147 30.208 49.608 29.248C48.9893 30.1227 48.296 30.8373 47.528 31.392C46.7813 31.9253 45.8853 32.192 44.84 32.192ZM46.92 29.088C47.4533 29.088 47.976 28.8427 48.488 28.352C49.0213 27.84 49.384 27.1467 49.576 26.272L51.112 19.04C51.112 18.7627 51.0053 18.496 50.792 18.24C50.5787 17.9627 50.248 17.824 49.8 17.824C48.9467 17.824 48.1787 18.3253 47.496 19.328C46.8133 20.3093 46.28 21.504 45.896 22.912C45.512 24.2987 45.32 25.5253 45.32 26.592C45.32 27.6587 45.4693 28.3413 45.768 28.64C46.088 28.9387 46.472 29.088 46.92 29.088ZM62.0998 32.192C60.6491 32.192 59.5398 31.84 58.7718 31.136C58.0038 30.4107 57.6197 29.3973 57.6197 28.096C57.6197 27.456 57.6944 26.848 57.8438 26.272L61.2678 10.24L66.0038 9.6L64.4678 16.8C65.0651 16.4373 65.5558 16.2027 65.9398 16.096C66.3238 15.968 66.7078 15.904 67.0918 15.904C69.6091 15.904 70.8678 17.728 70.8678 21.376C70.8678 22.848 70.5798 24.4267 70.0038 26.112C69.4491 27.776 68.5104 29.2053 67.1878 30.4C65.8864 31.5947 64.1904 32.192 62.0998 32.192ZM63.8918 29.088C64.5531 29.088 65.1718 28.6827 65.7478 27.872C66.3238 27.04 66.7824 26.016 67.1238 24.8C67.4651 23.5627 67.6358 22.3787 67.6358 21.248C67.6358 20.3947 67.4864 19.6693 67.1878 19.072C66.8891 18.4747 66.4731 18.176 65.9398 18.176C65.6198 18.176 65.2571 18.2293 64.8518 18.336C64.4678 18.4213 64.2011 18.56 64.0518 18.752L62.2918 26.88C62.2278 27.136 62.1958 27.3813 62.1958 27.616C62.1958 28.5973 62.7611 29.088 63.8918 29.088ZM75.2305 32.192C74.2065 32.192 73.3745 31.872 72.7345 31.232C72.1158 30.592 71.8065 29.632 71.8065 28.352C71.8065 27.8187 71.8918 27.1253 72.0625 26.272L75.4865 10.24L80.2225 9.6L76.5425 26.88C76.4572 27.2 76.4145 27.5413 76.4145 27.904C76.4145 28.3307 76.5105 28.64 76.7025 28.832C76.9158 29.0027 77.2572 29.088 77.7265 29.088C78.3452 29.088 78.9212 28.832 79.4545 28.32C79.9878 27.7867 80.3718 27.104 80.6065 26.272H81.9505C81.1612 28.576 80.1478 30.144 78.9105 30.976C77.6732 31.7867 76.4465 32.192 75.2305 32.192ZM85.2658 32.128C83.6871 32.128 82.4391 31.7227 81.5218 30.912C80.6044 30.1013 80.1457 28.8213 80.1457 27.072C80.1457 25.6213 80.4444 24.0107 81.0418 22.24C81.6391 20.4693 82.5991 18.944 83.9218 17.664C85.2444 16.3627 86.9084 15.712 88.9138 15.712C91.6444 15.712 93.0098 17.4187 93.0098 20.832V20.864C93.0738 20.8853 93.1911 20.896 93.3618 20.896C94.0658 20.896 94.8764 20.7147 95.7938 20.352C96.7111 19.968 97.5431 19.5093 98.2898 18.976L98.5778 19.84C97.9591 20.5013 97.1484 21.0667 96.1458 21.536C95.1644 21.984 94.0871 22.304 92.9138 22.496C92.7431 24.4373 92.3058 26.1333 91.6018 27.584C90.8978 29.0347 89.9911 30.1547 88.8818 30.944C87.7724 31.7333 86.5671 32.128 85.2658 32.128ZM86.5458 29.248C87.0578 29.248 87.5698 28.96 88.0818 28.384C88.5938 27.7867 89.0418 26.9867 89.4258 25.984C89.8098 24.96 90.0871 23.8293 90.2578 22.592C89.6818 22.464 89.3938 22.016 89.3938 21.248C89.3938 20.3733 89.7244 19.7973 90.3858 19.52C90.3431 18.816 90.2364 18.336 90.0658 18.08C89.8951 17.8027 89.5964 17.664 89.1698 17.664C88.4658 17.664 87.7831 18.176 87.1218 19.2C86.4604 20.224 85.9271 21.4507 85.5218 22.88C85.1164 24.3093 84.9138 25.568 84.9138 26.656C84.9138 27.68 85.0311 28.3733 85.2658 28.736C85.5004 29.0773 85.9271 29.248 86.5458 29.248ZM100.288 40C99.2856 40 98.4003 39.6693 97.6323 39.008C96.8856 38.368 96.5123 37.5467 96.5123 36.544C96.5123 35.6053 96.7469 34.8373 97.2163 34.24C97.6856 33.6427 98.2936 33.1733 99.0403 32.832C99.7869 32.4907 100.79 32.128 102.048 31.744L102.336 30.4C101.227 31.5947 99.9469 32.192 98.4963 32.192C97.2803 32.192 96.2669 31.776 95.4563 30.944C94.6456 30.112 94.2402 28.8107 94.2402 27.04C94.2402 25.4613 94.5496 23.808 95.1683 22.08C95.8083 20.3307 96.7469 18.8587 97.9843 17.664C99.2429 16.448 100.736 15.84 102.464 15.84C103.339 15.84 103.99 15.9893 104.416 16.288C104.843 16.5867 105.056 16.9813 105.056 17.472V17.536L105.376 16H110.016L106.112 34.56C105.686 36.608 104.928 38.0267 103.84 38.816C102.774 39.6053 101.59 40 100.288 40ZM100.576 29.088C101.067 29.088 101.558 28.8853 102.048 28.48C102.56 28.0533 102.923 27.456 103.136 26.688L104.768 18.944C104.598 18.1973 104.16 17.824 103.456 17.824C102.603 17.824 101.835 18.3253 101.152 19.328C100.47 20.3093 99.9363 21.504 99.5523 22.912C99.1683 24.2987 98.9763 25.5253 98.9763 26.592C98.9763 27.6587 99.1256 28.3413 99.4243 28.64C99.7443 28.9387 100.128 29.088 100.576 29.088ZM99.5523 37.152C99.9363 37.152 100.299 36.9493 100.64 36.544C100.982 36.16 101.248 35.5307 101.44 34.656L101.824 32.768C100.694 33.152 99.8189 33.6 99.2003 34.112C98.5816 34.624 98.2723 35.2853 98.2723 36.096C98.2723 36.352 98.4003 36.5867 98.6562 36.8C98.9123 37.0347 99.2109 37.152 99.5523 37.152Z" fill="#4338CA"/>
</svg>
